<?xml version="1.0" encoding="UTF-8" standalone="no"?>
<svg
   xmlns:dc="http://purl.org/dc/elements/1.1/"
   xmlns:cc="http://creativecommons.org/ns#"
   xmlns:rdf="http://www.w3.org/1999/02/22-rdf-syntax-ns#"
   xmlns:svg="http://www.w3.org/2000/svg"
   xmlns="http://www.w3.org/2000/svg"
   xmlns:xlink="http://www.w3.org/1999/xlink"
   xmlns:sodipodi="http://sodipodi.sourceforge.net/DTD/sodipodi-0.dtd"
   xmlns:inkscape="http://www.inkscape.org/namespaces/inkscape"
   inkscape:export-ydpi="90"
   inkscape:export-xdpi="90"
   inkscape:export-filename="C:\Users\sheehamj\Desktop\drunken-ironman\assets\images\favicon.ico.png"
   sodipodi:docname="initials.svg"
   height="2in"
   width="2in"
   inkscape:version="1.0beta2 (2b71d25, 2019-12-03)"
   xml:space="preserve"
   enable-background="new 0 0 612 792"
   viewBox="0 0 191.99999 191.99999"
   y="0px"
   x="0px"
   id="Layer_1"
   version="1.1"><metadata
   id="metadata3013"><rdf:RDF><cc:Work
       rdf:about=""><dc:format>image/svg+xml</dc:format><dc:type
         rdf:resource="http://purl.org/dc/dcmitype/StillImage" /><dc:title></dc:title></cc:Work></rdf:RDF></metadata><defs
   id="defs3011"><linearGradient
     id="linearGradient3785"
     inkscape:collect="always"><stop
       id="stop3787"
       offset="0"
       style="stop-color:#000000;stop-opacity:1;" /><stop
       id="stop3789"
       offset="1"
       style="stop-color:#000000;stop-opacity:0;" /></linearGradient><radialGradient
     gradientUnits="userSpaceOnUse"
     gradientTransform="matrix(1,0,0,0.45897404,0,214.82531)"
     r="44.599998"
     fy="397.07025"
     fx="306.5"
     cy="397.07025"
     cx="306.5"
     id="radialGradient3793"
     xlink:href="#linearGradient3785"
     inkscape:collect="always" /></defs><sodipodi:namedview
   showguides="false"
   units="in"
   inkscape:document-units="px"
   lock-margins="true"
   inkscape:document-rotation="0"
   fit-margin-bottom="0"
   fit-margin-right="0"
   fit-margin-left="0"
   fit-margin-top="0"
   inkscape:current-layer="g3003"
   inkscape:window-maximized="1"
   inkscape:window-y="23"
   inkscape:window-x="0"
   inkscape:cy="86.379221"
   inkscape:cx="66.711593"
   inkscape:zoom="2.16125"
   inkscape:snap-grids="true"
   inkscape:snap-to-guides="false"
   showgrid="true"
   id="namedview3009"
   inkscape:window-height="1035"
   inkscape:window-width="1920"
   inkscape:pageshadow="2"
   inkscape:pageopacity="0"
   guidetolerance="10"
   gridtolerance="10"
   objecttolerance="10"
   borderopacity="1"
   bordercolor="#666666"
   pagecolor="#ffffff"><inkscape:grid
     originy="-15.769272px"
     originx="-0.06948558px"
     snapvisiblegridlinesonly="true"
     enabled="true"
     visible="true"
     empspacing="5"
     id="grid3783"
     type="xygrid" /></sodipodi:namedview>
<g
   style="fill-opacity:1;fill-rule:nonzero"
   transform="matrix(0.64,0,0,0.64,-164.7137,-253.66995)"
   id="g3001">
	<g
   style="fill-opacity:1;fill-rule:nonzero"
   id="g3003">
		<path
   style="fill-opacity:1;fill-rule:nonzero;stroke-width:12.8304"
   inkscape:connector-curvature="0"
   id="path3005"
   d="m 260.14115,592.32045 c 18.83518,-30.94339 37.33396,-62.22332 56.50543,-93.1667 4.70889,-7.73585 11.77191,-13.79001 20.51687,-19.17148 9.41766,32.6252 -3.69978,62.5596 -6.39045,97.53905 16.14427,-21.18944 29.93441,-39.35193 46.0788,-60.5415 0,10.09023 0.33615,16.48081 0,23.20754 -0.67232,12.78116 -2.35439,25.56205 -2.35439,38.34308 0,14.46271 5.71788,17.15337 17.48979,8.40854 7.73585,-5.71787 14.1263,-12.78102 20.85316,-19.17147 3.69978,-3.3635 7.73585,-6.72686 13.4536,-7.73585 -9.41753,17.82608 -22.87113,31.9525 -42.04273,38.34295 -11.09921,3.69978 -16.81709,-5.04518 -16.81709,-15.13541 0,-13.79001 1.00847,-27.58002 1.68181,-43.72441 -16.4808,21.52586 -32.28891,42.04273 -47.76048,62.22319 -1.34552,-1.00847 -2.69079,-1.68169 -4.03619,-2.6908 6.72686,-35.31586 13.45372,-70.63173 19.84417,-105.94759 -1.68168,-1.00848 -3.69978,-1.68169 -5.38146,-2.69067 -3.3635,4.37235 -7.73585,8.07213 -10.42652,12.78089 -16.14452,28.25285 -31.61621,56.50544 -48.09701,84.42187 -2.69067,4.70877 -8.74483,7.39956 -13.4536,11.09934 0.33616,-2.01809 0.33616,-4.03619 0.33616,-6.39057 z" />
		<path
   style="fill-opacity:1;fill-rule:nonzero;stroke-width:12.4687"
   inkscape:connector-curvature="0"
   id="path3007"
   d="m 485.61401,568.24337 c 23.20711,-7.51775 46.08716,-15.0355 68.64054,-22.22644 0.65336,0.65335 1.30734,1.30747 1.96108,1.96119 -4.24921,3.26855 -8.17149,8.17149 -13.07431,9.80576 -14.38176,4.90294 -29.09046,8.82522 -43.79915,12.42057 -7.84468,1.9612 -12.74762,3.9224 -15.03551,13.72815 -3.59547,15.68924 -24.84138,25.16819 -39.55007,18.6311 -10.13269,-4.57613 -9.47883,-12.09389 -1.63428,-17.32363 9.15203,-6.21028 19.93844,-10.78629 32.0322,-17.3235 -6.53721,-10.13269 -13.07442,-20.26537 -19.61163,-30.39806 -6.86389,-10.45936 -15.03538,-20.26512 -20.59204,-31.37835 -6.86402,-14.05508 -1.96121,-24.18764 13.40122,-26.14872 13.72803,-1.63439 28.43673,-1.63439 42.16489,0.65337 18.95778,3.26853 24.18752,15.6891 14.7087,32.359 -3.59548,6.86401 -9.47896,12.42056 -14.38189,18.30417 -1.63428,-0.98004 -3.26855,-2.28813 -4.90282,-3.26867 3.26854,-5.22975 6.53721,-10.45949 10.13268,-15.68923 9.47883,-14.38177 7.19082,-22.22645 -9.47907,-25.49499 -10.45937,-1.9612 -21.57259,-2.28814 -32.35901,-1.63428 -15.36231,0.65337 -19.93844,8.17149 -11.76696,21.24578 13.40123,20.26525 27.783,39.55008 43.14543,61.77641 z m -40.85742,22.22644 c 21.2459,7.51776 29.09046,3.26855 32.0322,-15.03549 -11.76683,5.22975 -21.89952,10.13256 -32.0322,15.03549 z" />
	</g>
</g>
</svg>
